<svg width="140" height="40" viewBox="0 0 140 40" fill="none" xmlns="http://www.w3.org/2000/svg">
<path d="M0 5.85449L7.77177 10.3667V34.7017L4.007 32.5275C1.52842 31.0948 0 28.449 0 25.5855V5.85449Z" fill="#A55893"/>
<path d="M18.0954 0V36.1721L14.2085 38.416L10.2804 36.1477V4.51218L18.0954 0Z" fill="#93468A"/>
<path d="M28.4159 5.85449V25.5836C28.4159 28.4471 26.8893 31.0946 24.4089 32.5255L20.6027 34.7243V10.3667L28.4159 5.85449Z" fill="#813481"/>
<path fill-rule="evenodd" clip-rule="evenodd" d="M125.818 10.8888V23.6608H128.998V31.0573H123.6V28.4959H108.884V31.0573H103.488V23.6608H105.904C106.475 22.9514 106.905 22.0108 107.196 20.8388C107.501 19.6183 107.653 18.1236 107.653 16.3567C107.653 15.5267 107.621 14.6573 107.555 13.7504C107.487 12.8454 107.39 11.8914 107.258 10.8888H125.818ZM112.916 15.7464C112.94 16.3717 112.953 16.9594 112.953 17.5077C112.953 19.3084 112.781 20.8087 112.435 22.0142C112.248 22.6674 112.008 23.2318 111.715 23.7078H120.074V15.63H112.911C112.913 15.6689 112.914 15.7077 112.916 15.7464Z" fill="#223342"/>
<path fill-rule="evenodd" clip-rule="evenodd" d="M71.6664 10.4868C73.8858 10.4868 75.8275 10.87 77.4968 11.638C79.1642 12.4041 80.4635 13.4782 81.3911 14.8545C82.3186 16.2309 82.7843 17.8438 82.7843 19.6896C82.7843 21.5354 82.3186 23.1483 81.3911 24.5265C80.4635 25.9047 79.1642 26.9769 77.4968 27.743C75.8275 28.511 73.8858 28.894 71.6664 28.894C69.4488 28.894 67.5054 28.5091 65.838 27.743C64.1706 26.9769 62.8713 25.9029 61.9438 24.5265C61.0143 23.1502 60.5505 21.5372 60.5505 19.6896C60.5505 17.8438 61.0143 16.2309 61.9438 14.8545C62.8713 13.4782 64.1706 12.4041 65.838 11.638C67.5054 10.8719 69.4488 10.4868 71.6664 10.4868ZM71.6664 15.3502C70.5661 15.3502 69.6178 15.5266 68.8198 15.8777C68.0237 16.2307 67.4116 16.7302 66.9835 17.3799C66.5554 18.0296 66.3432 18.7995 66.3432 19.6914C66.3432 20.5833 66.5573 21.3552 66.9835 22.0048C67.4097 22.6545 68.0218 23.1559 68.8198 23.507C69.6178 23.8581 70.5661 24.0345 71.6664 24.0346C72.7686 24.0346 73.7169 23.8581 74.513 23.507C75.3092 23.154 75.9214 22.6545 76.3495 22.0048C76.7776 21.3552 76.9898 20.5852 76.9898 19.6914C76.9898 18.7995 76.7757 18.0296 76.3495 17.3799C75.9214 16.7302 75.3092 16.2288 74.513 15.8777C73.7169 15.5266 72.7667 15.3502 71.6664 15.3502Z" fill="#223342"/>
<path d="M60.4002 10.8888L54.1857 18.25L60.6761 28.4941H54.17L50.5677 22.5361L45.5382 28.4941H40.3387V10.8906H46.032V21.2189L54.3858 10.8888H60.4002Z" fill="#223342"/>
<path fill-rule="evenodd" clip-rule="evenodd" d="M96.2906 10.8888C97.9017 10.8888 99.2856 11.146 100.444 11.6624C101.603 12.1788 102.485 12.9016 103.094 13.8348C103.702 14.7661 104.006 15.8647 104.006 17.1321C104.006 18.3846 103.702 19.4793 103.094 20.4181C102.485 21.357 101.603 22.0855 100.444 22.6019C99.2856 23.1182 97.9016 23.3755 96.2906 23.3755H91.4594V28.4923H85.7173V10.8869H96.2906V10.8888ZM91.4594 19.0568H95.9207C96.6436 19.0568 97.2051 18.8859 97.6088 18.5404C98.0107 18.1968 98.2134 17.7274 98.2134 17.1321C98.2134 16.5069 98.0125 16.0281 97.6088 15.6995C97.2304 15.3914 96.7132 15.2268 96.0544 15.2075L95.9207 15.2057H91.4594V19.0568Z" fill="#223342"/>
</svg>
